<svg width="20" height="15" viewBox="0 0 20 15" fill="none" xmlns="http://www.w3.org/2000/svg"><g clip-path="url(#clip0_6555_5107)" fill-rule="evenodd" clip-rule="evenodd" stroke-width="1px" fill-opacity="1" stroke-opacity="1"><path d="M0 0h28.5v1.154H0V0zm0 2.308h28.5v1.154H0V2.308zm0 2.307h28.5V5.77H0V4.615zm0 2.308h28.5v1.154H0V6.923zm0 2.308h28.5v1.154H0V9.23zm0 2.308h28.5v1.153H0V11.54zm0 2.307h28.5V15H0v-1.154z" fill="#BD3D44" stroke-width="1px" fill-opacity="1" stroke-opacity="1"></path><path d="M0 1.154h28.5v1.154H0V1.154zm0 2.308h28.5v1.153H0V3.462zm0 2.307h28.5v1.154H0V5.77zm0 2.308h28.5V9.23H0V8.077zm0 2.308h28.5v1.154H0v-1.154zm0 2.307h28.5v1.154H0v-1.154z" fill="#fff" stroke-width="1px" fill-opacity="1" stroke-opacity="1"></path><path d="M0 0h11.4v8.077H0V0z" fill="#192F5D" stroke-width="1px" fill-opacity="1" stroke-opacity="1"></path><path d="M.95.346l.103.32h.336l-.272.197.104.319L.949.985l-.271.197.103-.32L.51.666h.335L.95.346zm1.9 0l.103.32h.336l-.272.197.104.319-.272-.197-.271.197.103-.32L2.41.666h.335L2.85.346zm1.9 0l.103.32h.336l-.272.197.104.319-.272-.197-.271.197.103-.32L4.31.666h.336l.103-.319zm1.9 0l.103.32h.336l-.272.197.104.319-.272-.197-.271.197.103-.32L6.21.666h.335L6.65.346zm1.9 0l.103.32h.336l-.272.197.104.319-.272-.197-.271.197.103-.32L8.11.666h.335L8.55.346zm1.9 0l.103.32h.336l-.272.197.104.319-.272-.197-.271.197.103-.32-.271-.197h.336l.103-.319zm-8.55.808l.103.32h.336l-.272.196.104.32-.272-.198-.271.198.103-.32-.271-.197h.335l.104-.32zm1.9 0l.103.32h.336l-.272.196.104.32-.272-.198-.271.198.103-.32-.271-.197h.335l.104-.32zm1.9 0l.103.32h.336l-.272.196.104.32-.272-.198-.271.198.103-.32-.271-.197h.335l.104-.32zm1.9 0l.103.32h.336l-.272.196.104.32-.272-.198-.271.198.103-.32-.271-.197h.336l.103-.32zm1.9 0l.103.32h.336l-.272.196.104.32-.272-.198-.271.198.103-.32-.271-.197h.335l.104-.32zm-8.55.808l.103.319h.336l-.272.197.104.32L.949 2.6l-.271.197.103-.319-.271-.197h.335l.104-.32zm1.9 0l.103.319h.336l-.272.197.104.32-.272-.198-.271.197.103-.319-.271-.197h.335l.104-.32zm1.9 0l.103.319h.336l-.272.197.104.32-.272-.198-.271.197.103-.319-.271-.197h.336l.103-.32zm1.9 0l.103.319h.336l-.272.197.104.32-.272-.198-.271.197.103-.319-.271-.197h.335l.104-.32zm1.9 0l.103.319h.336l-.272.197.104.32-.272-.198-.271.197.103-.319-.271-.197h.335l.104-.32zm1.9 0l.103.319h.336l-.272.197.104.32-.272-.198-.271.197.103-.319-.271-.197h.336l.103-.32zm-8.55.807l.103.32h.336l-.272.197.104.32-.272-.198-.271.197.103-.32-.271-.196h.335l.104-.32zm1.9 0l.103.32h.336l-.272.197.104.32-.272-.198-.271.197.103-.32-.271-.196h.335l.104-.32zm1.9 0l.103.32h.336l-.272.197.104.32-.272-.198-.271.197.103-.32-.271-.196h.335l.104-.32zm1.9 0l.103.32h.336l-.272.197.104.32-.272-.198-.271.197.103-.32-.271-.196h.336l.103-.32zm1.9 0l.103.32h.336l-.272.197.104.32-.272-.198-.271.197.103-.32-.271-.196h.335l.104-.32zm-8.55.808l.103.32h.336l-.272.197.104.319-.272-.198-.271.198.103-.32-.271-.197h.335l.104-.319zm1.9 0l.103.32h.336l-.272.197.104.319-.272-.198-.271.198.103-.32-.271-.197h.335l.104-.319zm1.9 0l.103.32h.336l-.272.197.104.319-.272-.198-.271.198.103-.32-.271-.197h.336l.103-.319zm1.9 0l.103.32h.336l-.272.197.104.319-.272-.198-.271.198.103-.32-.271-.197h.335l.104-.319zm1.9 0l.103.32h.336l-.272.197.104.319-.272-.198-.271.198.103-.32-.271-.197h.335l.104-.319zm1.9 0l.103.32h.336l-.272.197.104.319-.272-.198-.271.198.103-.32-.271-.197h.336l.103-.319zm-8.55.808l.103.319h.336l-.272.197.104.32-.272-.198-.271.197.103-.319-.271-.197h.335l.104-.32zm1.9 0l.103.319h.336l-.272.197.104.32-.272-.198-.271.197.103-.319-.271-.197h.335l.104-.32zm1.9 0l.103.319h.336l-.272.197.104.32-.272-.198-.271.197.103-.319-.271-.197h.335l.104-.32zm1.9 0l.103.319h.336l-.272.197.104.32-.272-.198-.271.197.103-.319-.271-.197h.336l.103-.32zm1.9 0l.103.319h.336l-.272.197.104.32-.272-.198-.271.197.103-.319-.271-.197h.335l.104-.32zm-8.55.807l.103.32h.336l-.272.197.104.32-.272-.198-.271.197.103-.32-.271-.196h.335l.104-.32zm1.9 0l.103.32h.336l-.272.197.104.32-.272-.198-.271.197.103-.32-.271-.196h.335l.104-.32zm1.9 0l.103.32h.336l-.272.197.104.32-.272-.198-.271.197.103-.32-.271-.196h.336l.103-.32zm1.9 0l.103.32h.336l-.272.197.104.32-.272-.198-.271.197.103-.32-.271-.196h.335l.104-.32zm1.9 0l.103.32h.336l-.272.197.104.32-.272-.198-.271.197.103-.32-.271-.196h.335l.104-.32zm1.9 0l.103.32h.336l-.272.197.104.32-.272-.198-.271.197.103-.32-.271-.196h.336l.103-.32zM1.9 6l.103.32h.336l-.272.197.104.319-.272-.197-.271.197.103-.32-.271-.197h.335L1.9 6zm1.9 0l.103.32h.336l-.272.197.104.319-.272-.197-.271.197.103-.32-.271-.197h.335L3.8 6zm1.9 0l.103.32h.336l-.272.197.104.319-.272-.197-.271.197.103-.32-.271-.197h.335L5.7 6zm1.9 0l.103.32h.336l-.272.197.104.319-.272-.197-.271.197.103-.32-.271-.197h.336L7.599 6zm1.9 0l.103.32h.336l-.272.197.104.319-.272-.197-.271.197.103-.32-.271-.197h.335L9.5 6zm-8.55.808l.103.319h.336l-.272.197.104.32-.272-.198-.271.198.103-.32-.271-.197h.335l.104-.32zm1.9 0l.103.319h.336l-.272.197.104.32-.272-.198-.271.198.103-.32-.271-.197h.335l.104-.32zm1.9 0l.103.319h.336l-.272.197.104.32-.272-.198-.271.198.103-.32-.271-.197h.336l.103-.32zm1.9 0l.103.319h.336l-.272.197.104.32-.272-.198-.271.198.103-.32-.271-.197h.335l.104-.32zm1.9 0l.103.319h.336l-.272.197.104.32-.272-.198-.271.198.103-.32-.271-.197h.335l.104-.32zm1.9 0l.103.319h.336l-.272.197.104.32-.272-.198-.271.198.103-.32-.271-.197h.336l.103-.32z" fill="#fff" stroke-width="1px" fill-opacity="1" stroke-opacity="1"></path></g><defs><clipPath id="clip0_6555_5107"><path fill="#fff" d="M0 0H20V15H0z"></path></clipPath></defs></svg>