<svg viewBox="0 0 200 25" fill="none" xmlns="http://www.w3.org/2000/svg"><path d="M63.3888 5.82276H50.8532V11.3626H61.3177V16.7246H50.8532V24.5719H45.0952V0.425781H63.3888V5.82276Z" fill="white" stroke-width="1px" fill-opacity="1" stroke-opacity="1"></path><path d="M81.1544 20.8082H69.6366L68.0562 24.5719H61.9463L72.1654 0.425781H78.5918L88.8448 24.5728H82.7001L81.1544 20.8082ZM79.1527 16.0504L75.4302 7.03086L71.6383 16.0504H79.1527Z" fill="white" stroke-width="1px" fill-opacity="1" stroke-opacity="1"></path><path d="M108.786 8.06148H103.062C103.062 6.85426 101.658 5.22096 99.1999 5.22096C97.4791 5.22096 95.3725 6.0021 95.3725 7.38729C95.3725 8.55944 96.9529 9.02059 100.324 9.90869C104.081 10.9029 109.383 12.1811 109.383 17.5079C109.383 22.1247 105.381 25.0002 99.7972 25.0002C92.3175 25.0002 89.1932 19.8864 89.1932 16.1228H94.9165C94.9165 16.1228 95.3725 19.9583 100.113 19.9583C102.677 19.9583 103.625 18.8581 103.625 17.8279C103.625 16.3007 101.624 15.7686 99.4115 15.2355C95.8302 14.3834 89.5443 13.0341 89.5443 7.67222C89.5443 3.26942 93.8286 0.00195326 99.271 0.00195326C105.485 0.00107656 108.786 4.29779 108.786 8.06148Z" fill="white" stroke-width="1px" fill-opacity="1" stroke-opacity="1"></path><path d="M133.889 5.82276H125.427V24.5719H119.598V5.82276H111.136V0.425781H133.89V5.82276H133.889Z" fill="white" stroke-width="1px" fill-opacity="1" stroke-opacity="1"></path><path d="M143.578 24.5728H137.82V0.425781H143.578V24.5728Z" fill="white" stroke-width="1px" fill-opacity="1" stroke-opacity="1"></path><path d="M172.229 24.5728H166.435L154.357 9.80036V24.5728H148.562V0.425781H154.357L166.435 15.1623V0.425781H172.229V24.5728Z" fill="white" stroke-width="1px" fill-opacity="1" stroke-opacity="1"></path><path d="M199.755 5.2909L194.769 7.84736C193.575 6.32015 191.714 5.46799 188.976 5.46799C184.797 5.46799 181.883 8.41546 181.883 12.4281C181.883 16.2628 184.867 19.5654 189.046 19.5654C191.608 19.5654 193.645 18.7483 194.909 17.5411V15.1976H187.641V10.7238H200V19.6723C199.825 20.0274 196.068 24.9992 189.08 24.9992C181.18 24.9992 176.089 18.9981 176.089 12.5C176.089 5.78799 181.531 0 189.046 0C193.645 0 197.367 2.09532 199.755 5.2909Z" fill="white" stroke-width="1px" fill-opacity="1" stroke-opacity="1"></path><path d="M7.69904 17.7602H0V0.317317L7.69731 0.291016C7.71638 0.291016 7.73632 0.291016 7.75539 0.291016C10.4775 0.291016 12.7774 1.1572 14.4072 2.79838C15.9676 4.37031 16.7929 6.51472 16.7929 9.00105C16.7929 14.0772 12.9681 17.7602 7.69904 17.7602ZM4.85644 13.1408C5.80397 13.1408 6.75151 13.1408 7.69904 13.1408C8.012 13.1557 9.43027 13.1908 10.5971 12.1239C11.8429 10.985 11.8784 9.43414 11.8888 9.00105C11.8992 8.55481 11.9244 7.47296 11.2057 6.47527C10.1125 4.95858 8.22006 4.91825 7.97559 4.9165C6.93529 4.91474 5.89587 4.91299 4.85644 4.91036C4.85644 7.65444 4.85644 10.3976 4.85644 13.1408Z" fill="white" stroke-width="1px" fill-opacity="1" stroke-opacity="1"></path><path d="M26.5153 18.0531C21.6068 18.0531 17.613 14.0036 17.613 9.02653C17.613 4.04949 21.6068 0 26.5153 0C31.4237 0 35.4167 4.04949 35.4167 9.02653C35.4167 14.0036 31.4237 18.0531 26.5153 18.0531ZM26.5153 4.64389C24.1339 4.63074 22.14 6.6042 22.133 9.02653C22.1261 11.4576 24.1243 13.4477 26.5153 13.4337C28.888 13.4206 30.8559 11.4401 30.849 9.02653C30.8429 6.62261 28.8785 4.65704 26.5153 4.64389Z" fill="white" stroke-width="1px" fill-opacity="1" stroke-opacity="1"></path></svg>