<svg width="18" height="15" viewBox="0 0 18 15" fill="none" xmlns="http://www.w3.org/2000/svg"><path fill-rule="evenodd" clip-rule="evenodd" d="M8.74003 3.99023L8.77905 4.63903L8.12875 4.55958C5.76165 4.25505 3.6937 3.22228 1.93789 1.48775L1.0795 0.627107L0.858396 1.26266C0.39018 2.67941 0.689318 4.1756 1.66477 5.18189C2.18501 5.738 2.06795 5.81745 1.17054 5.48643C0.858396 5.3805 0.58527 5.30106 0.559258 5.34078C0.468216 5.43347 0.78036 6.63837 1.02747 7.11503C1.36563 7.77706 2.05495 8.42586 2.80929 8.80983L3.44659 9.11437L2.69224 9.12761C1.9639 9.12761 1.93789 9.14085 2.01593 9.41891C2.27605 10.2795 3.30352 11.1932 4.44805 11.5904L5.25442 11.8684L4.5521 12.2921C3.51162 12.9012 2.28905 13.2455 1.06649 13.2719C0.481222 13.2852 0 13.3381 0 13.3779C0 13.5103 1.58673 14.2517 2.51016 14.543C5.28043 15.4037 8.57095 15.0329 11.0421 13.5632C12.7979 12.5172 14.5537 10.4384 15.3731 8.42586C15.8153 7.35336 16.2575 5.39374 16.2575 4.45366C16.2575 3.84459 16.2965 3.76514 17.0248 3.03691C17.454 2.61321 17.8572 2.14978 17.9353 2.01738C18.0653 1.7658 18.0523 1.7658 17.389 1.9909C16.2835 2.38811 16.1274 2.33515 16.6737 1.73932C17.0769 1.31562 17.5581 0.547663 17.5581 0.322572C17.5581 0.28285 17.363 0.349054 17.1419 0.46822C16.9078 0.600626 16.3876 0.799236 15.9974 0.918402L15.295 1.14349L14.6578 0.706551C14.3066 0.468219 13.8124 0.203406 13.5522 0.123962C12.8889 -0.0614069 11.8745 -0.0349255 11.2762 0.176925C9.65045 0.772755 8.62297 2.30867 8.74003 3.99023Z" fill="#505070" stroke-width="1px" fill-opacity="1" stroke-opacity="1"></path></svg>